<?xml version="1.0" encoding="utf-8"?>
<svg xmlns="http://www.w3.org/2000/svg" xmlns:xlink="http://www.w3.org/1999/xlink" width="250" height="250" viewBox="0 0 1000 1000">
<defs>
  <clipPath id="clip490">
    <rect x="0" y="0" width="1000" height="1000"/>
  </clipPath>
</defs>
<path clip-path="url(#clip490)" d="
M0 1000 L1000 1000 L1000 0 L0 0  Z
  " fill="#ffffff" fill-rule="evenodd" fill-opacity="1"/>
<defs>
  <clipPath id="clip491">
    <rect x="200" y="100" width="701" height="701"/>
  </clipPath>
</defs>
<defs>
  <clipPath id="clip492">
    <rect x="157" y="188" width="718" height="543"/>
  </clipPath>
</defs>
<path clip-path="url(#clip490)" d="
M157.48 730.817 L874.016 730.817 L874.016 188.976 L157.48 188.976  Z
  " fill="#ffffff" fill-rule="evenodd" fill-opacity="1"/>
<polyline clip-path="url(#clip490)" style="stroke:#000000; stroke-width:4; stroke-opacity:1; fill:none" points="
  157.48,730.817 874.016,730.817 
  "/>
<polyline clip-path="url(#clip490)" style="stroke:#000000; stroke-width:4; stroke-opacity:1; fill:none" points="
  157.48,188.976 874.016,188.976 
  "/>
<polyline clip-path="url(#clip490)" style="stroke:#000000; stroke-width:4; stroke-opacity:1; fill:none" points="
  245.357,730.817 245.357,724.315 
  "/>
<polyline clip-path="url(#clip490)" style="stroke:#000000; stroke-width:4; stroke-opacity:1; fill:none" points="
  358.02,730.817 358.02,724.315 
  "/>
<polyline clip-path="url(#clip490)" style="stroke:#000000; stroke-width:4; stroke-opacity:1; fill:none" points="
  470.683,730.817 470.683,724.315 
  "/>
<polyline clip-path="url(#clip490)" style="stroke:#000000; stroke-width:4; stroke-opacity:1; fill:none" points="
  583.346,730.817 583.346,724.315 
  "/>
<polyline clip-path="url(#clip490)" style="stroke:#000000; stroke-width:4; stroke-opacity:1; fill:none" points="
  696.009,730.817 696.009,724.315 
  "/>
<polyline clip-path="url(#clip490)" style="stroke:#000000; stroke-width:4; stroke-opacity:1; fill:none" points="
  808.671,730.817 808.671,724.315 
  "/>
<path clip-path="url(#clip490)" d="M 0 0 M205.167 813.858 L226.151 792.874 L228.934 795.657 L207.95 816.641 L205.167 813.858 Z" fill="#000000" fill-rule="evenodd" fill-opacity="1" /><path clip-path="url(#clip490)" d="M 0 0 M239.425 797.834 L244.827 792.433 L226.184 773.789 L221.486 780.844 L218.474 777.832 L223.139 770.81 L226.446 767.504 L248.101 789.159 L253.502 783.757 L256.285 786.54 L242.208 800.617 L239.425 797.834 Z" fill="#000000" fill-rule="evenodd" fill-opacity="1" /><path clip-path="url(#clip490)" d="M 0 0 M235.464 758.485 L248.444 745.505 L251.227 748.288 L241.275 758.24 L247.266 764.23 Q247.741 763.265 248.346 762.43 Q248.935 761.579 249.656 760.858 Q253.748 756.766 258.38 756.619 Q263.012 756.472 266.842 760.302 Q270.787 764.247 270.525 768.895 Q270.247 773.527 265.778 777.996 Q264.24 779.534 262.374 780.877 Q260.524 782.202 258.298 783.381 L254.975 780.058 Q257.25 779.387 259.215 778.209 Q261.179 777.03 262.93 775.279 Q265.762 772.447 265.925 769.304 Q266.089 766.162 263.536 763.608 Q260.982 761.055 257.84 761.219 Q254.697 761.382 251.865 764.214 Q250.539 765.54 249.508 767.16 Q248.493 768.764 247.741 770.761 L235.464 758.485 Z" fill="#000000" fill-rule="evenodd" fill-opacity="1" /><path clip-path="url(#clip490)" d="M 0 0 M317.126 814.562 L338.11 793.578 L340.893 796.361 L319.909 817.345 L317.126 814.562 Z" fill="#000000" fill-rule="evenodd" fill-opacity="1" /><path clip-path="url(#clip490)" d="M 0 0 M351.384 798.538 L356.786 793.136 L338.143 774.493 L333.445 781.548 L330.433 778.536 L335.098 771.514 L338.405 768.208 L360.06 789.863 L365.461 784.461 L368.244 787.244 L354.167 801.32 L351.384 798.538 Z" fill="#000000" fill-rule="evenodd" fill-opacity="1" /><path clip-path="url(#clip490)" d="M 0 0 M356.639 754.328 Q354.085 756.881 355.313 760.695 Q356.54 764.476 361.582 769.517 Q366.607 774.542 370.404 775.786 Q374.202 776.997 376.755 774.444 Q379.325 771.874 378.097 768.093 Q376.87 764.279 371.845 759.254 Q366.803 754.213 363.006 753.002 Q359.208 751.758 356.639 754.328 M354.02 751.709 Q358.128 747.6 363.546 748.697 Q368.964 749.761 375.151 755.948 Q381.322 762.119 382.402 767.553 Q383.482 772.954 379.374 777.063 Q375.266 781.171 369.848 780.107 Q364.43 779.011 358.259 772.84 Q352.072 766.653 350.992 761.251 Q349.911 755.817 354.02 751.709 Z" fill="#000000" fill-rule="evenodd" fill-opacity="1" /><path clip-path="url(#clip490)" d="M 0 0 M448.727 795.624 L469.711 774.64 L472.493 777.423 L451.509 798.407 L448.727 795.624 Z" fill="#000000" fill-rule="evenodd" fill-opacity="1" /><path clip-path="url(#clip490)" d="M 0 0 M460.79 758.485 L473.77 745.505 L476.553 748.288 L466.601 758.24 L472.591 764.23 Q473.066 763.265 473.672 762.43 Q474.261 761.579 474.981 760.858 Q479.073 756.766 483.705 756.619 Q488.338 756.472 492.168 760.302 Q496.112 764.247 495.851 768.895 Q495.572 773.527 491.104 777.996 Q489.565 779.534 487.699 780.877 Q485.85 782.202 483.624 783.381 L480.301 780.058 Q482.576 779.387 484.54 778.209 Q486.504 777.03 488.256 775.279 Q491.087 772.447 491.251 769.304 Q491.415 766.162 488.861 763.608 Q486.308 761.055 483.165 761.219 Q480.023 761.382 477.191 764.214 Q475.865 765.54 474.834 767.16 Q473.819 768.764 473.066 770.761 L460.79 758.485 Z" fill="#000000" fill-rule="evenodd" fill-opacity="1" /><path clip-path="url(#clip490)" d="M 0 0 M581.964 754.328 Q579.411 756.881 580.638 760.695 Q581.866 764.476 586.907 769.517 Q591.932 774.542 595.73 775.786 Q599.527 776.997 602.081 774.444 Q604.65 771.874 603.423 768.093 Q602.195 764.279 597.17 759.254 Q592.129 754.213 588.331 753.002 Q584.534 751.758 581.964 754.328 M579.345 751.709 Q583.454 747.6 588.872 748.697 Q594.289 749.761 600.477 755.948 Q606.647 762.119 607.728 767.553 Q608.808 772.954 604.7 777.063 Q600.591 781.171 595.173 780.107 Q589.755 779.011 583.585 772.84 Q577.398 766.653 576.317 761.251 Q575.237 755.817 579.345 751.709 Z" fill="#000000" fill-rule="evenodd" fill-opacity="1" /><path clip-path="url(#clip490)" d="M 0 0 M686.116 758.485 L699.096 745.505 L701.878 748.288 L691.926 758.24 L697.917 764.23 Q698.392 763.265 698.997 762.43 Q699.587 761.579 700.307 760.858 Q704.399 756.766 709.031 756.619 Q713.663 756.472 717.493 760.302 Q721.438 764.247 721.176 768.895 Q720.898 773.527 716.429 777.996 Q714.891 779.534 713.025 780.877 Q711.175 782.202 708.949 783.381 L705.626 780.058 Q707.902 779.387 709.866 778.209 Q711.83 777.03 713.581 775.279 Q716.413 772.447 716.577 769.304 Q716.74 766.162 714.187 763.608 Q711.634 761.055 708.491 761.219 Q705.348 761.382 702.516 764.214 Q701.191 765.54 700.159 767.16 Q699.145 768.764 698.392 770.761 L686.116 758.485 Z" fill="#000000" fill-rule="evenodd" fill-opacity="1" /><path clip-path="url(#clip490)" d="M 0 0 M802.036 798.538 L807.437 793.136 L788.794 774.493 L784.096 781.548 L781.084 778.536 L785.749 771.514 L789.056 768.208 L810.711 789.863 L816.112 784.461 L818.895 787.244 L804.818 801.32 L802.036 798.538 Z" fill="#000000" fill-rule="evenodd" fill-opacity="1" /><path clip-path="url(#clip490)" d="M 0 0 M807.29 754.328 Q804.736 756.881 805.964 760.695 Q807.192 764.476 812.233 769.517 Q817.258 774.542 821.055 775.786 Q824.853 776.997 827.406 774.444 Q829.976 771.874 828.748 768.093 Q827.521 764.279 822.496 759.254 Q817.454 754.213 813.657 753.002 Q809.86 751.758 807.29 754.328 M804.671 751.709 Q808.779 747.6 814.197 748.697 Q819.615 749.761 825.802 755.948 Q831.973 762.119 833.053 767.553 Q834.134 772.954 830.025 777.063 Q825.917 781.171 820.499 780.107 Q815.081 779.011 808.91 772.84 Q802.723 766.653 801.643 761.251 Q800.563 755.817 804.671 751.709 Z" fill="#000000" fill-rule="evenodd" fill-opacity="1" /><path clip-path="url(#clip490)" d="M 0 0 M530.183 836.515 L520.682 874.647 Q520.296 876.354 520.296 877.803 Q520.296 880.83 522.26 880.83 Q523.226 880.83 523.999 880.219 Q524.772 879.607 525.384 878.318 Q525.996 877.03 526.383 875.839 Q526.769 874.615 527.284 872.682 Q527.445 871.909 527.574 871.716 Q527.735 871.491 528.186 871.491 Q528.991 871.491 528.991 872.135 Q528.122 876.289 526.994 878.673 Q525.191 882.312 522.131 882.312 Q519.813 882.312 518.17 880.895 Q516.528 879.478 516.141 877.352 Q511.922 882.312 507.542 882.312 Q503.677 882.312 501.23 879.381 Q498.782 876.418 498.782 871.748 Q498.782 867.046 501.101 862.538 Q503.452 858.029 507.156 855.227 Q510.859 852.425 514.66 852.425 Q518.685 852.425 520.746 856.644 L524.708 840.992 L524.901 839.704 Q524.901 839.317 524.74 839.124 Q524.611 838.898 523.838 838.737 Q523.098 838.576 521.616 838.576 Q521.004 838.576 520.714 838.544 Q520.457 838.512 520.231 838.351 Q520.006 838.158 520.006 837.771 Q520.006 836.644 520.94 836.515 Q527.123 835.807 529.313 835.807 Q529.7 835.807 529.925 836 Q530.151 836.161 530.151 836.354 L530.183 836.515 M519.941 859.671 Q519.941 859.381 519.716 858.576 Q519.49 857.771 518.975 856.644 Q518.46 855.517 517.333 854.711 Q516.238 853.874 514.756 853.874 Q512.759 853.874 510.666 855.581 Q508.605 857.288 507.091 860.186 Q505.932 862.505 504.676 867.368 Q503.452 872.231 503.452 874.647 Q503.452 876.128 503.774 877.449 Q504.128 878.737 505.127 879.8 Q506.125 880.83 507.671 880.83 Q511.439 880.83 515.143 876.161 Q515.851 875.355 516.012 875.033 Q516.205 874.679 516.463 873.713 L519.748 860.798 Q519.941 859.832 519.941 859.671 Z" fill="#000000" fill-rule="evenodd" fill-opacity="1" /><polyline clip-path="url(#clip490)" style="stroke:#000000; stroke-width:4; stroke-opacity:1; fill:none" points="
  157.48,730.817 157.48,188.976 
  "/>
<polyline clip-path="url(#clip490)" style="stroke:#000000; stroke-width:4; stroke-opacity:1; fill:none" points="
  874.016,730.817 874.016,188.976 
  "/>
<polyline clip-path="url(#clip492)" style="stroke:#000000; stroke-width:4; stroke-opacity:1; fill:none" stroke-dasharray="16, 10" points="
  549.991,1272.66 549.991,-352.864 
  "/>
<polyline clip-path="url(#clip492)" style="stroke:#000000; stroke-width:4; stroke-opacity:1; fill:none" stroke-dasharray="16, 10" points="
  583.184,1272.66 583.184,-352.864 
  "/>
<polyline clip-path="url(#clip492)" style="stroke:#000000; stroke-width:4; stroke-opacity:1; fill:none" stroke-dasharray="16, 10" points="
  613.723,1272.66 613.723,-352.864 
  "/>
<polyline clip-path="url(#clip492)" style="stroke:#000000; stroke-width:4; stroke-opacity:1; fill:none" points="
  177.76,715.354 222.825,715.354 222.825,715.482 267.89,715.482 267.89,714.715 312.955,714.715 312.955,714.076 358.02,714.076 358.02,713.182 403.085,713.182 
  403.085,707.942 448.15,707.942 448.15,686.09 493.215,686.09 493.215,620.66 538.281,620.66 538.281,204.311 583.346,204.311 583.346,215.685 628.411,215.685 
  628.411,626.538 673.476,626.538 673.476,688.007 718.541,688.007 718.541,706.409 763.606,706.409 763.606,712.032 808.671,712.032 808.671,714.332 853.736,714.332 
  853.736,714.971 
  "/>
<path clip-path="url(#clip490)" d="M 0 0 M363.642 93.4391 L355.005 128.104 Q354.654 129.656 354.654 130.974 Q354.654 133.726 356.44 133.726 Q357.318 133.726 358.021 133.169 Q358.723 132.613 359.28 131.442 Q359.836 130.271 360.187 129.188 Q360.539 128.075 361.007 126.318 Q361.153 125.616 361.271 125.44 Q361.417 125.235 361.827 125.235 Q362.559 125.235 362.559 125.821 Q361.768 129.597 360.744 131.764 Q359.104 135.072 356.323 135.072 Q354.215 135.072 352.721 133.784 Q351.228 132.496 350.877 130.564 Q347.041 135.072 343.06 135.072 Q339.546 135.072 337.321 132.408 Q335.096 129.715 335.096 125.469 Q335.096 121.195 337.204 117.096 Q339.341 112.997 342.708 110.45 Q346.075 107.902 349.53 107.902 Q353.19 107.902 355.064 111.738 L358.665 97.5087 L358.841 96.3376 Q358.841 95.9863 358.694 95.8106 Q358.577 95.6057 357.874 95.4593 Q357.201 95.3129 355.854 95.3129 Q355.298 95.3129 355.034 95.2836 Q354.8 95.2543 354.595 95.1079 Q354.39 94.9323 354.39 94.5809 Q354.39 93.5562 355.239 93.4391 Q360.861 92.795 362.852 92.795 Q363.203 92.795 363.408 92.9706 Q363.613 93.117 363.613 93.2927 L363.642 93.4391 M354.332 114.49 Q354.332 114.227 354.127 113.495 Q353.922 112.763 353.453 111.738 Q352.985 110.713 351.96 109.981 Q350.965 109.22 349.618 109.22 Q347.803 109.22 345.9 110.772 Q344.026 112.323 342.65 114.958 Q341.596 117.066 340.454 121.487 Q339.341 125.908 339.341 128.104 Q339.341 129.451 339.634 130.651 Q339.956 131.823 340.864 132.789 Q341.771 133.726 343.177 133.726 Q346.602 133.726 349.969 129.48 Q350.613 128.748 350.76 128.456 Q350.935 128.134 351.17 127.255 L354.156 115.515 Q354.332 114.636 354.332 114.49 Z" fill="#000000" fill-rule="evenodd" fill-opacity="1" /><path clip-path="url(#clip490)" d="M 0 0 M382.576 125.294 Q382.635 124.562 383.777 124.562 L420.521 124.562 Q422.248 124.562 422.277 125.235 Q422.277 125.967 420.638 125.938 L384.187 125.938 Q382.576 125.967 382.576 125.294 M382.576 113.582 Q382.576 112.85 383.835 112.88 L420.462 112.88 Q422.248 112.88 422.277 113.582 Q422.277 114.256 420.755 114.256 L383.777 114.256 Q382.576 114.256 382.576 113.582 Z" fill="#000000" fill-rule="evenodd" fill-opacity="1" /><path clip-path="url(#clip490)" d="M 0 0 M501.61 118.56 Q501.962 118.911 501.962 119.409 Q501.962 119.906 501.61 120.258 Q501.259 120.609 500.761 120.609 L463.227 120.609 Q462.729 120.609 462.378 120.258 Q462.026 119.906 462.026 119.409 Q462.026 118.911 462.378 118.56 Q462.729 118.208 463.227 118.208 L500.761 118.208 Q501.259 118.208 501.61 118.56 Z" fill="#000000" fill-rule="evenodd" fill-opacity="1" /><path clip-path="url(#clip490)" d="M 0 0 M524.843 115.222 Q524.843 106.409 527.068 101.608 Q530.172 94.4638 537.491 94.4638 Q539.043 94.4638 540.654 94.903 Q542.293 95.3129 544.343 96.9232 Q546.421 98.5335 547.68 101.168 Q550.081 106.263 550.081 115.222 Q550.081 123.976 547.856 128.748 Q544.606 135.717 537.433 135.717 Q534.739 135.717 531.987 134.341 Q529.264 132.964 527.537 129.656 Q524.843 124.708 524.843 115.222 M529.821 114.49 Q529.821 123.537 530.465 127.138 Q531.197 131.032 533.188 132.73 Q535.208 134.399 537.433 134.399 Q539.834 134.399 541.825 132.613 Q543.845 130.798 544.46 126.904 Q545.133 123.068 545.104 114.49 Q545.104 106.146 544.518 102.808 Q543.728 98.9141 541.62 97.3623 Q539.541 95.7813 537.433 95.7813 Q536.642 95.7813 535.793 96.0156 Q534.974 96.2498 533.773 96.9232 Q532.573 97.5966 531.636 99.2654 Q530.728 100.934 530.289 103.452 Q529.821 106.702 529.821 114.49 Z" fill="#000000" fill-rule="evenodd" fill-opacity="1" /><path clip-path="url(#clip490)" d="M 0 0 M555.438 133.433 Q554.531 132.467 554.531 131.208 Q554.531 129.949 555.438 129.041 Q556.346 128.104 557.722 128.104 Q559.04 128.104 559.918 128.983 Q560.826 129.832 560.826 131.237 Q560.826 132.613 559.859 133.521 Q558.923 134.399 557.722 134.399 Q556.346 134.399 555.438 133.433 Z" fill="#000000" fill-rule="evenodd" fill-opacity="1" /><path clip-path="url(#clip490)" d="M 0 0 M571.027 115.222 Q571.027 106.409 573.252 101.608 Q576.356 94.4638 583.675 94.4638 Q585.227 94.4638 586.837 94.903 Q588.477 95.3129 590.526 96.9232 Q592.605 98.5335 593.864 101.168 Q596.265 106.263 596.265 115.222 Q596.265 123.976 594.04 128.748 Q590.79 135.717 583.617 135.717 Q580.923 135.717 578.171 134.341 Q575.448 132.964 573.721 129.656 Q571.027 124.708 571.027 115.222 M576.004 114.49 Q576.004 123.537 576.649 127.138 Q577.38 131.032 579.371 132.73 Q581.392 134.399 583.617 134.399 Q586.018 134.399 588.008 132.613 Q590.029 130.798 590.643 126.904 Q591.317 123.068 591.288 114.49 Q591.288 106.146 590.702 102.808 Q589.911 98.9141 587.803 97.3623 Q585.725 95.7813 583.617 95.7813 Q582.826 95.7813 581.977 96.0156 Q581.157 96.2498 579.957 96.9232 Q578.757 97.5966 577.82 99.2654 Q576.912 100.934 576.473 103.452 Q576.004 106.702 576.004 114.49 Z" fill="#000000" fill-rule="evenodd" fill-opacity="1" /><path clip-path="url(#clip490)" d="M 0 0 M600.715 100.173 L600.715 98.2992 Q607.917 98.2992 611.635 94.4638 Q612.66 94.4638 612.836 94.698 Q613.011 94.9323 613.011 96.0156 L613.011 129.656 Q613.011 131.442 613.89 131.998 Q614.768 132.555 618.604 132.555 L620.507 132.555 L620.507 134.399 Q618.399 134.223 610.786 134.223 Q603.174 134.223 601.095 134.399 L601.095 132.555 L602.998 132.555 Q606.775 132.555 607.683 132.028 Q608.59 131.471 608.59 129.656 L608.59 98.592 Q605.458 100.173 600.715 100.173 Z" fill="#000000" fill-rule="evenodd" fill-opacity="1" /><path clip-path="url(#clip490)" d="M 0 0 M627.674 89.6887 Q626.711 89.6887 626.711 89.1763 Q626.711 88.664 627.715 88.664 Q627.838 88.664 628.043 88.6845 Q628.269 88.705 628.31 88.705 L640.135 88.705 L640.135 76.8386 Q640.135 76.7976 640.114 76.6131 Q640.094 76.4082 640.094 76.2852 Q640.094 75.281 640.586 75.281 Q641.098 75.281 641.098 76.2852 L641.098 88.705 L652.944 88.705 Q652.985 88.705 653.19 88.6845 Q653.395 88.664 653.518 88.664 Q654.481 88.664 654.481 89.1763 Q654.502 89.6887 653.477 89.6887 Q653.354 89.6887 653.17 89.6682 Q652.985 89.6477 652.944 89.6477 L641.098 89.6477 L641.098 102.108 Q641.098 103.072 640.586 103.072 Q640.094 103.072 640.094 102.067 Q640.094 101.944 640.114 101.74 Q640.135 101.555 640.135 101.514 L640.135 89.6477 L628.31 89.6477 Q628.269 89.6477 628.023 89.6682 Q627.797 89.6887 627.674 89.6887 Z" fill="#000000" fill-rule="evenodd" fill-opacity="1" /><path clip-path="url(#clip490)" d="M 0 0 M659.04 75.7114 L659.04 74.3997 Q664.081 74.3997 666.684 71.7149 Q667.401 71.7149 667.524 71.8789 Q667.647 72.0428 667.647 72.8011 L667.647 96.3495 Q667.647 97.5996 668.262 97.989 Q668.877 98.3784 671.562 98.3784 L672.894 98.3784 L672.894 99.6696 Q671.418 99.5466 666.09 99.5466 Q660.761 99.5466 659.306 99.6696 L659.306 98.3784 L660.638 98.3784 Q663.282 98.3784 663.917 98.0095 Q664.553 97.6201 664.553 96.3495 L664.553 74.6047 Q662.36 75.7114 659.04 75.7114 Z" fill="#000000" fill-rule="evenodd" fill-opacity="1" /><path clip-path="url(#clip490)" d="M 0 0 M676.191 98.9933 Q675.555 98.3169 675.555 97.4357 Q675.555 96.5544 676.191 95.9191 Q676.826 95.2632 677.789 95.2632 Q678.711 95.2632 679.326 95.8781 Q679.962 96.4724 679.962 97.4562 Q679.962 98.4194 679.285 99.0548 Q678.629 99.6696 677.789 99.6696 Q676.826 99.6696 676.191 98.9933 Z" fill="#000000" fill-rule="evenodd" fill-opacity="1" /><path clip-path="url(#clip490)" d="M 0 0 M687.103 94.0131 Q687.103 92.7629 687.82 92.1686 Q688.537 91.5742 689.46 91.5742 Q690.423 91.5742 691.099 92.2095 Q691.796 92.8244 691.796 93.9106 Q691.796 95.0788 690.976 95.7346 Q690.177 96.3905 689.029 96.2265 Q690.033 97.9071 691.878 98.6654 Q693.743 99.4237 695.464 99.4237 Q697.268 99.4237 698.723 97.8661 Q700.199 96.3085 700.199 92.4965 Q700.199 89.2583 698.928 87.3933 Q697.678 85.5283 695.198 85.5283 L693.354 85.5283 Q692.718 85.5283 692.534 85.4668 Q692.349 85.4053 692.349 85.0569 Q692.349 84.647 692.985 84.565 Q693.62 84.565 694.624 84.4421 Q697.063 84.3601 698.354 82.2492 Q699.522 80.2817 699.522 77.4739 Q699.522 74.9121 698.293 73.8463 Q697.084 72.7601 695.505 72.7601 Q694.03 72.7601 692.411 73.375 Q690.792 73.9898 689.91 75.363 Q692.513 75.363 692.513 77.4739 Q692.513 78.3962 691.919 79.011 Q691.345 79.6053 690.382 79.6053 Q689.46 79.6053 688.845 79.0315 Q688.23 78.4371 688.23 77.4329 Q688.23 75.035 690.361 73.375 Q692.513 71.7149 695.669 71.7149 Q698.785 71.7149 701.08 73.3545 Q703.396 74.994 703.396 77.5149 Q703.396 79.9947 701.756 82.0237 Q700.117 84.0527 697.514 84.893 Q700.711 85.5283 702.617 87.7007 Q704.523 89.8527 704.523 92.4965 Q704.523 95.7756 701.941 98.194 Q699.358 100.592 695.587 100.592 Q692.103 100.592 689.603 98.7063 Q687.103 96.8208 687.103 94.0131 Z" fill="#000000" fill-rule="evenodd" fill-opacity="1" /><path clip-path="url(#clip490)" d="M 0 0 M707.884 86.4096 Q707.884 79.8103 711.245 75.7728 Q714.606 71.7149 718.931 71.7149 Q721.451 71.7149 722.845 73.0061 Q724.259 74.2767 724.259 76.2442 Q724.259 77.3304 723.624 77.8018 Q722.988 78.2732 722.333 78.2732 Q721.574 78.2732 720.98 77.7608 Q720.386 77.2485 720.386 76.3262 Q720.386 74.4407 722.702 74.4407 Q721.615 72.7601 719.012 72.7601 Q718.213 72.7601 717.393 73.0061 Q716.574 73.2315 715.508 74.0103 Q714.442 74.7891 713.622 76.0188 Q712.803 77.2485 712.229 79.5644 Q711.655 81.8802 711.655 84.893 L711.655 85.8972 Q713.376 81.7368 716.902 81.7573 Q720.427 81.7573 722.865 84.4421 Q725.304 87.1269 725.304 91.1028 Q725.304 95.1813 722.763 97.8866 Q720.222 100.592 716.656 100.592 Q715.057 100.592 713.602 99.9155 Q712.167 99.2597 710.815 97.7431 Q709.482 96.2265 708.683 93.3163 Q707.884 90.406 707.884 86.4096 M711.737 90.1806 Q711.737 94.3 712.495 96.2675 Q712.618 96.5954 712.885 97.0463 Q713.172 97.4972 713.643 98.0915 Q714.135 98.6654 714.934 99.0548 Q715.733 99.4237 716.656 99.4237 Q719.463 99.4237 720.816 96.6979 Q721.533 95.1813 721.533 91.0618 Q721.533 86.8604 720.775 85.3233 Q719.484 82.7205 716.861 82.7205 Q715.098 82.7205 713.868 83.9297 Q712.659 85.1389 712.188 86.758 Q711.737 88.377 711.737 90.1806 Z" fill="#000000" fill-rule="evenodd" fill-opacity="1" /><path clip-path="url(#clip490)" d="M 0 0 M654.42 139.978 Q654.666 140.223 654.666 140.572 Q654.666 140.92 654.42 141.166 Q654.174 141.412 653.825 141.412 L627.551 141.412 Q627.203 141.412 626.957 141.166 Q626.711 140.92 626.711 140.572 Q626.711 140.223 626.957 139.978 Q627.203 139.732 627.551 139.732 L653.825 139.732 Q654.174 139.732 654.42 139.978 Z" fill="#000000" fill-rule="evenodd" fill-opacity="1" /><path clip-path="url(#clip490)" d="M 0 0 M659.04 127.107 L659.04 125.795 Q664.081 125.795 666.684 123.11 Q667.401 123.11 667.524 123.274 Q667.647 123.438 667.647 124.197 L667.647 147.745 Q667.647 148.995 668.262 149.385 Q668.877 149.774 671.562 149.774 L672.894 149.774 L672.894 151.065 Q671.418 150.942 666.09 150.942 Q660.761 150.942 659.306 151.065 L659.306 149.774 L660.638 149.774 Q663.282 149.774 663.917 149.405 Q664.553 149.016 664.553 147.745 L664.553 126 Q662.36 127.107 659.04 127.107 Z" fill="#000000" fill-rule="evenodd" fill-opacity="1" /><path clip-path="url(#clip490)" d="M 0 0 M676.191 150.389 Q675.555 149.712 675.555 148.831 Q675.555 147.95 676.191 147.315 Q676.826 146.659 677.789 146.659 Q678.711 146.659 679.326 147.274 Q679.962 147.868 679.962 148.852 Q679.962 149.815 679.285 150.45 Q678.629 151.065 677.789 151.065 Q676.826 151.065 676.191 150.389 Z" fill="#000000" fill-rule="evenodd" fill-opacity="1" /><path clip-path="url(#clip490)" d="M 0 0 M687.103 145.409 Q687.103 144.158 687.82 143.564 Q688.537 142.97 689.46 142.97 Q690.423 142.97 691.099 143.605 Q691.796 144.22 691.796 145.306 Q691.796 146.474 690.976 147.13 Q690.177 147.786 689.029 147.622 Q690.033 149.303 691.878 150.061 Q693.743 150.819 695.464 150.819 Q697.268 150.819 698.723 149.262 Q700.199 147.704 700.199 143.892 Q700.199 140.654 698.928 138.789 Q697.678 136.924 695.198 136.924 L693.354 136.924 Q692.718 136.924 692.534 136.862 Q692.349 136.801 692.349 136.452 Q692.349 136.043 692.985 135.961 Q693.62 135.961 694.624 135.838 Q697.063 135.756 698.354 133.645 Q699.522 131.677 699.522 128.869 Q699.522 126.308 698.293 125.242 Q697.084 124.156 695.505 124.156 Q694.03 124.156 692.411 124.77 Q690.792 125.385 689.91 126.758 Q692.513 126.758 692.513 128.869 Q692.513 129.792 691.919 130.407 Q691.345 131.001 690.382 131.001 Q689.46 131.001 688.845 130.427 Q688.23 129.833 688.23 128.828 Q688.23 126.431 690.361 124.77 Q692.513 123.11 695.669 123.11 Q698.785 123.11 701.08 124.75 Q703.396 126.39 703.396 128.91 Q703.396 131.39 701.756 133.419 Q700.117 135.448 697.514 136.288 Q700.711 136.924 702.617 139.096 Q704.523 141.248 704.523 143.892 Q704.523 147.171 701.941 149.589 Q699.358 151.987 695.587 151.987 Q692.103 151.987 689.603 150.102 Q687.103 148.216 687.103 145.409 Z" fill="#000000" fill-rule="evenodd" fill-opacity="1" /><path clip-path="url(#clip490)" d="M 0 0 M707.884 132.558 Q707.884 130.325 708.54 128.808 Q709.196 127.271 710.569 125.754 Q713.09 123.11 716.738 123.11 Q718.295 123.11 719.668 123.766 Q721.062 124.422 722.374 125.918 Q723.706 127.394 724.505 130.325 Q725.304 133.235 725.304 137.252 Q725.304 143.749 722.148 147.868 Q719.012 151.987 714.77 151.987 Q712.085 151.987 710.507 150.778 Q708.929 149.548 708.929 147.458 Q708.929 146.372 709.544 145.921 Q710.159 145.45 710.856 145.45 Q711.614 145.45 712.208 145.962 Q712.803 146.454 712.803 147.376 Q712.803 148.134 712.311 148.729 Q711.839 149.303 710.61 149.303 Q711.819 150.819 714.729 150.819 Q715.774 150.819 716.82 150.348 Q717.865 149.856 718.992 148.688 Q720.14 147.499 720.837 145.019 Q721.533 142.539 721.533 139.055 L721.533 137.723 Q719.853 141.924 716.287 141.924 Q712.762 141.924 710.323 139.219 Q707.884 136.514 707.884 132.558 M711.655 132.599 Q711.655 136.76 712.413 138.297 Q713.704 140.941 716.328 140.941 Q718.89 140.941 720.16 138.666 Q721.451 136.37 721.451 133.399 Q721.451 129.279 720.775 127.476 Q719.525 124.156 716.738 124.156 Q713.971 124.156 712.536 126.799 Q711.655 128.357 711.655 132.599 Z" fill="#000000" fill-rule="evenodd" fill-opacity="1" /></svg>
