<?xml version="1.0" encoding="utf-8"?>
<svg xmlns="http://www.w3.org/2000/svg" xmlns:xlink="http://www.w3.org/1999/xlink" width="250" height="250" viewBox="0 0 1000 1000">
<defs>
  <clipPath id="clip010">
    <rect x="0" y="0" width="1000" height="1000"/>
  </clipPath>
</defs>
<path clip-path="url(#clip010)" d="
M0 1000 L1000 1000 L1000 0 L0 0  Z
  " fill="#ffffff" fill-rule="evenodd" fill-opacity="1"/>
<defs>
  <clipPath id="clip011">
    <rect x="200" y="100" width="701" height="701"/>
  </clipPath>
</defs>
<defs>
  <clipPath id="clip012">
    <rect x="157" y="188" width="718" height="543"/>
  </clipPath>
</defs>
<path clip-path="url(#clip010)" d="
M157.48 730.817 L874.016 730.817 L874.016 188.976 L157.48 188.976  Z
  " fill="#ffffff" fill-rule="evenodd" fill-opacity="1"/>
<polyline clip-path="url(#clip010)" style="stroke:#000000; stroke-width:4; stroke-opacity:1; fill:none" points="
  157.48,730.817 874.016,730.817 
  "/>
<polyline clip-path="url(#clip010)" style="stroke:#000000; stroke-width:4; stroke-opacity:1; fill:none" points="
  157.48,188.976 874.016,188.976 
  "/>
<polyline clip-path="url(#clip010)" style="stroke:#000000; stroke-width:4; stroke-opacity:1; fill:none" points="
  201.728,730.817 201.728,737.319 
  "/>
<polyline clip-path="url(#clip010)" style="stroke:#000000; stroke-width:4; stroke-opacity:1; fill:none" points="
  309.046,730.817 309.046,737.319 
  "/>
<polyline clip-path="url(#clip010)" style="stroke:#000000; stroke-width:4; stroke-opacity:1; fill:none" points="
  416.364,730.817 416.364,737.319 
  "/>
<polyline clip-path="url(#clip010)" style="stroke:#000000; stroke-width:4; stroke-opacity:1; fill:none" points="
  523.682,730.817 523.682,737.319 
  "/>
<polyline clip-path="url(#clip010)" style="stroke:#000000; stroke-width:4; stroke-opacity:1; fill:none" points="
  631,730.817 631,737.319 
  "/>
<polyline clip-path="url(#clip010)" style="stroke:#000000; stroke-width:4; stroke-opacity:1; fill:none" points="
  738.317,730.817 738.317,737.319 
  "/>
<polyline clip-path="url(#clip010)" style="stroke:#000000; stroke-width:4; stroke-opacity:1; fill:none" points="
  845.635,730.817 845.635,737.319 
  "/>
<path clip-path="url(#clip010)" d="M 0 0 M161.538 817.858 L182.522 796.874 L185.305 799.657 L164.321 820.641 L161.538 817.858 Z" fill="#000000" fill-rule="evenodd" fill-opacity="1" /><path clip-path="url(#clip010)" d="M 0 0 M195.797 801.834 L201.198 796.433 L182.555 777.789 L177.857 784.844 L174.845 781.832 L179.51 774.81 L182.817 771.504 L204.472 793.159 L209.873 787.757 L212.656 790.54 L198.579 804.617 L195.797 801.834 Z" fill="#000000" fill-rule="evenodd" fill-opacity="1" /><path clip-path="url(#clip010)" d="M 0 0 M191.835 762.485 L204.815 749.505 L207.598 752.288 L197.646 762.24 L203.637 768.23 Q204.112 767.265 204.717 766.43 Q205.306 765.579 206.027 764.858 Q210.119 760.766 214.751 760.619 Q219.383 760.472 223.213 764.302 Q227.158 768.247 226.896 772.895 Q226.618 777.527 222.149 781.996 Q220.611 783.534 218.745 784.877 Q216.895 786.202 214.669 787.381 L211.346 784.058 Q213.621 783.387 215.586 782.209 Q217.55 781.03 219.301 779.279 Q222.133 776.447 222.296 773.304 Q222.46 770.162 219.907 767.608 Q217.353 765.055 214.211 765.219 Q211.068 765.382 208.236 768.214 Q206.91 769.54 205.879 771.16 Q204.864 772.764 204.112 774.761 L191.835 762.485 Z" fill="#000000" fill-rule="evenodd" fill-opacity="1" /><path clip-path="url(#clip010)" d="M 0 0 M268.152 818.562 L289.136 797.578 L291.919 800.361 L270.935 821.345 L268.152 818.562 Z" fill="#000000" fill-rule="evenodd" fill-opacity="1" /><path clip-path="url(#clip010)" d="M 0 0 M302.41 802.538 L307.812 797.136 L289.169 778.493 L284.471 785.548 L281.459 782.536 L286.124 775.514 L289.431 772.208 L311.086 793.863 L316.487 788.461 L319.27 791.244 L305.193 805.32 L302.41 802.538 Z" fill="#000000" fill-rule="evenodd" fill-opacity="1" /><path clip-path="url(#clip010)" d="M 0 0 M307.665 758.328 Q305.111 760.881 306.339 764.695 Q307.566 768.476 312.608 773.517 Q317.633 778.542 321.43 779.786 Q325.228 780.997 327.781 778.444 Q330.351 775.874 329.123 772.093 Q327.896 768.279 322.871 763.254 Q317.829 758.213 314.032 757.002 Q310.234 755.758 307.665 758.328 M305.046 755.709 Q309.154 751.6 314.572 752.697 Q319.99 753.761 326.177 759.948 Q332.348 766.119 333.428 771.553 Q334.508 776.954 330.4 781.063 Q326.292 785.171 320.874 784.107 Q315.456 783.011 309.285 776.84 Q303.098 770.653 302.018 765.251 Q300.937 759.817 305.046 755.709 Z" fill="#000000" fill-rule="evenodd" fill-opacity="1" /><path clip-path="url(#clip010)" d="M 0 0 M394.408 799.624 L415.392 778.64 L418.174 781.423 L397.19 802.407 L394.408 799.624 Z" fill="#000000" fill-rule="evenodd" fill-opacity="1" /><path clip-path="url(#clip010)" d="M 0 0 M406.471 762.485 L419.451 749.505 L422.234 752.288 L412.282 762.24 L418.272 768.23 Q418.747 767.265 419.353 766.43 Q419.942 765.579 420.662 764.858 Q424.754 760.766 429.386 760.619 Q434.019 760.472 437.849 764.302 Q441.793 768.247 441.532 772.895 Q441.253 777.527 436.785 781.996 Q435.246 783.534 433.38 784.877 Q431.531 786.202 429.305 787.381 L425.982 784.058 Q428.257 783.387 430.221 782.209 Q432.185 781.03 433.937 779.279 Q436.768 776.447 436.932 773.304 Q437.096 770.162 434.542 767.608 Q431.989 765.055 428.846 765.219 Q425.704 765.382 422.872 768.214 Q421.546 769.54 420.515 771.16 Q419.5 772.764 418.747 774.761 L406.471 762.485 Z" fill="#000000" fill-rule="evenodd" fill-opacity="1" /><path clip-path="url(#clip010)" d="M 0 0 M522.3 758.328 Q519.747 760.881 520.974 764.695 Q522.202 768.476 527.243 773.517 Q532.268 778.542 536.066 779.786 Q539.863 780.997 542.417 778.444 Q544.986 775.874 543.759 772.093 Q542.531 768.279 537.506 763.254 Q532.465 758.213 528.667 757.002 Q524.87 755.758 522.3 758.328 M519.681 755.709 Q523.79 751.6 529.208 752.697 Q534.625 753.761 540.813 759.948 Q546.983 766.119 548.064 771.553 Q549.144 776.954 545.036 781.063 Q540.927 785.171 535.509 784.107 Q530.092 783.011 523.921 776.84 Q517.734 770.653 516.653 765.251 Q515.573 759.817 519.681 755.709 Z" fill="#000000" fill-rule="evenodd" fill-opacity="1" /><path clip-path="url(#clip010)" d="M 0 0 M621.107 762.485 L634.087 749.505 L636.869 752.288 L626.917 762.24 L632.908 768.23 Q633.383 767.265 633.988 766.43 Q634.578 765.579 635.298 764.858 Q639.39 760.766 644.022 760.619 Q648.654 760.472 652.484 764.302 Q656.429 768.247 656.167 772.895 Q655.889 777.527 651.42 781.996 Q649.882 783.534 648.016 784.877 Q646.166 786.202 643.94 787.381 L640.617 784.058 Q642.893 783.387 644.857 782.209 Q646.821 781.03 648.572 779.279 Q651.404 776.447 651.568 773.304 Q651.731 770.162 649.178 767.608 Q646.625 765.055 643.482 765.219 Q640.339 765.382 637.508 768.214 Q636.182 769.54 635.151 771.16 Q634.136 772.764 633.383 774.761 L621.107 762.485 Z" fill="#000000" fill-rule="evenodd" fill-opacity="1" /><path clip-path="url(#clip010)" d="M 0 0 M731.682 802.538 L737.083 797.136 L718.44 778.493 L713.742 785.548 L710.731 782.536 L715.395 775.514 L718.702 772.208 L740.357 793.863 L745.758 788.461 L748.541 791.244 L734.464 805.32 L731.682 802.538 Z" fill="#000000" fill-rule="evenodd" fill-opacity="1" /><path clip-path="url(#clip010)" d="M 0 0 M736.936 758.328 Q734.382 760.881 735.61 764.695 Q736.838 768.476 741.879 773.517 Q746.904 778.542 750.701 779.786 Q754.499 780.997 757.052 778.444 Q759.622 775.874 758.395 772.093 Q757.167 768.279 752.142 763.254 Q747.101 758.213 743.303 757.002 Q739.506 755.758 736.936 758.328 M734.317 755.709 Q738.425 751.6 743.843 752.697 Q749.261 753.761 755.448 759.948 Q761.619 766.119 762.699 771.553 Q763.78 776.954 759.671 781.063 Q755.563 785.171 750.145 784.107 Q744.727 783.011 738.556 776.84 Q732.369 770.653 731.289 765.251 Q730.209 759.817 734.317 755.709 Z" fill="#000000" fill-rule="evenodd" fill-opacity="1" /><path clip-path="url(#clip010)" d="M 0 0 M839.703 801.834 L845.105 796.433 L826.462 777.789 L821.764 784.844 L818.752 781.832 L823.417 774.81 L826.723 771.504 L848.378 793.159 L853.78 787.757 L856.563 790.54 L842.486 804.617 L839.703 801.834 Z" fill="#000000" fill-rule="evenodd" fill-opacity="1" /><path clip-path="url(#clip010)" d="M 0 0 M835.742 762.485 L848.722 749.505 L851.505 752.288 L841.553 762.24 L847.544 768.23 Q848.018 767.265 848.624 766.43 Q849.213 765.579 849.933 764.858 Q854.025 760.766 858.658 760.619 Q863.29 760.472 867.12 764.302 Q871.065 768.247 870.803 772.895 Q870.525 777.527 866.056 781.996 Q864.517 783.534 862.651 784.877 Q860.802 786.202 858.576 787.381 L855.253 784.058 Q857.528 783.387 859.492 782.209 Q861.457 781.03 863.208 779.279 Q866.04 776.447 866.203 773.304 Q866.367 770.162 863.814 767.608 Q861.26 765.055 858.118 765.219 Q854.975 765.382 852.143 768.214 Q850.817 769.54 849.786 771.16 Q848.771 772.764 848.018 774.761 L835.742 762.485 Z" fill="#000000" fill-rule="evenodd" fill-opacity="1" /><path clip-path="url(#clip010)" d="M 0 0 M530.183 836.515 L520.682 874.647 Q520.296 876.354 520.296 877.803 Q520.296 880.83 522.26 880.83 Q523.226 880.83 523.999 880.219 Q524.772 879.607 525.384 878.318 Q525.996 877.03 526.383 875.839 Q526.769 874.615 527.284 872.682 Q527.445 871.909 527.574 871.716 Q527.735 871.491 528.186 871.491 Q528.991 871.491 528.991 872.135 Q528.122 876.289 526.994 878.673 Q525.191 882.312 522.131 882.312 Q519.813 882.312 518.17 880.895 Q516.528 879.478 516.141 877.352 Q511.922 882.312 507.542 882.312 Q503.677 882.312 501.23 879.381 Q498.782 876.418 498.782 871.748 Q498.782 867.046 501.101 862.538 Q503.452 858.029 507.156 855.227 Q510.859 852.425 514.66 852.425 Q518.685 852.425 520.746 856.644 L524.708 840.992 L524.901 839.704 Q524.901 839.317 524.74 839.124 Q524.611 838.898 523.838 838.737 Q523.098 838.576 521.616 838.576 Q521.004 838.576 520.714 838.544 Q520.457 838.512 520.231 838.351 Q520.006 838.158 520.006 837.771 Q520.006 836.644 520.94 836.515 Q527.123 835.807 529.313 835.807 Q529.7 835.807 529.925 836 Q530.151 836.161 530.151 836.354 L530.183 836.515 M519.941 859.671 Q519.941 859.381 519.716 858.576 Q519.49 857.771 518.975 856.644 Q518.46 855.517 517.333 854.711 Q516.238 853.874 514.756 853.874 Q512.759 853.874 510.666 855.581 Q508.605 857.288 507.091 860.186 Q505.932 862.505 504.676 867.368 Q503.452 872.231 503.452 874.647 Q503.452 876.128 503.774 877.449 Q504.128 878.737 505.127 879.8 Q506.125 880.83 507.671 880.83 Q511.439 880.83 515.143 876.161 Q515.851 875.355 516.012 875.033 Q516.205 874.679 516.463 873.713 L519.748 860.798 Q519.941 859.832 519.941 859.671 Z" fill="#000000" fill-rule="evenodd" fill-opacity="1" /><polyline clip-path="url(#clip010)" style="stroke:#000000; stroke-width:4; stroke-opacity:1; fill:none" points="
  157.48,730.817 157.48,188.976 
  "/>
<polyline clip-path="url(#clip010)" style="stroke:#000000; stroke-width:4; stroke-opacity:1; fill:none" points="
  874.016,730.817 874.016,188.976 
  "/>
<polyline clip-path="url(#clip012)" style="stroke:#000000; stroke-width:4; stroke-opacity:1; fill:none" stroke-dasharray="16, 10" points="
  492.762,1272.66 492.762,-352.864 
  "/>
<polyline clip-path="url(#clip012)" style="stroke:#000000; stroke-width:4; stroke-opacity:1; fill:none" stroke-dasharray="16, 10" points="
  523.766,1272.66 523.766,-352.864 
  "/>
<polyline clip-path="url(#clip012)" style="stroke:#000000; stroke-width:4; stroke-opacity:1; fill:none" stroke-dasharray="16, 10" points="
  553.495,1272.66 553.495,-352.864 
  "/>
<polyline clip-path="url(#clip012)" style="stroke:#000000; stroke-width:4; stroke-opacity:1; fill:none" points="
  137.338,715.482 180.265,715.482 180.265,715.355 223.192,715.355 223.192,715.1 266.119,715.1 266.119,715.355 309.046,715.355 309.046,713.191 351.973,713.191 
  351.973,706.954 394.9,706.954 394.9,689.007 437.827,689.007 437.827,618.747 480.755,618.747 480.755,221.877 523.682,221.877 523.682,204.311 566.609,204.311 
  566.609,621.929 609.536,621.929 609.536,687.861 652.463,687.861 652.463,708.609 695.39,708.609 695.39,713.573 738.317,713.573 738.317,714.591 781.244,714.591 
  781.244,715.227 824.172,715.227 824.172,715.355 
  "/>
<path clip-path="url(#clip010)" d="M 0 0 M364.609 108.465 L355.972 143.13 Q355.621 144.682 355.621 145.999 Q355.621 148.751 357.407 148.751 Q358.285 148.751 358.988 148.195 Q359.691 147.639 360.247 146.468 Q360.803 145.296 361.155 144.213 Q361.506 143.101 361.974 141.344 Q362.121 140.641 362.238 140.466 Q362.384 140.261 362.794 140.261 Q363.526 140.261 363.526 140.846 Q362.736 144.623 361.711 146.79 Q360.071 150.098 357.29 150.098 Q355.182 150.098 353.689 148.81 Q352.196 147.522 351.844 145.589 Q348.009 150.098 344.027 150.098 Q340.514 150.098 338.288 147.434 Q336.063 144.74 336.063 140.495 Q336.063 136.22 338.171 132.121 Q340.309 128.022 343.676 125.475 Q347.043 122.928 350.497 122.928 Q354.157 122.928 356.031 126.763 L359.632 112.534 L359.808 111.363 Q359.808 111.012 359.661 110.836 Q359.544 110.631 358.842 110.485 Q358.168 110.338 356.821 110.338 Q356.265 110.338 356.002 110.309 Q355.767 110.28 355.563 110.133 Q355.358 109.958 355.358 109.606 Q355.358 108.582 356.207 108.465 Q361.828 107.82 363.819 107.82 Q364.17 107.82 364.375 107.996 Q364.58 108.143 364.58 108.318 L364.609 108.465 M355.299 129.516 Q355.299 129.252 355.094 128.52 Q354.889 127.788 354.421 126.763 Q353.952 125.739 352.928 125.007 Q351.932 124.245 350.585 124.245 Q348.77 124.245 346.867 125.797 Q344.993 127.349 343.617 129.984 Q342.563 132.092 341.421 136.513 Q340.309 140.934 340.309 143.13 Q340.309 144.477 340.601 145.677 Q340.924 146.848 341.831 147.814 Q342.739 148.751 344.144 148.751 Q347.57 148.751 350.937 144.506 Q351.581 143.774 351.727 143.481 Q351.903 143.159 352.137 142.281 L355.123 130.54 Q355.299 129.662 355.299 129.516 Z" fill="#000000" fill-rule="evenodd" fill-opacity="1" /><path clip-path="url(#clip010)" d="M 0 0 M383.544 140.319 Q383.602 139.587 384.744 139.587 L421.488 139.587 Q423.215 139.587 423.245 140.261 Q423.245 140.993 421.605 140.963 L385.154 140.963 Q383.544 140.993 383.544 140.319 M383.544 128.608 Q383.544 127.876 384.803 127.905 L421.429 127.905 Q423.215 127.905 423.245 128.608 Q423.245 129.281 421.722 129.281 L384.744 129.281 Q383.544 129.281 383.544 128.608 Z" fill="#000000" fill-rule="evenodd" fill-opacity="1" /><path clip-path="url(#clip010)" d="M 0 0 M446.361 130.247 Q446.361 121.435 448.586 116.633 Q451.689 109.489 459.009 109.489 Q460.56 109.489 462.171 109.929 Q463.81 110.338 465.86 111.949 Q467.939 113.559 469.197 116.194 Q471.598 121.288 471.598 130.247 Q471.598 139.002 469.373 143.774 Q466.123 150.742 458.95 150.742 Q456.257 150.742 453.504 149.366 Q450.782 147.99 449.054 144.682 Q446.361 139.734 446.361 130.247 M451.338 129.516 Q451.338 138.562 451.982 142.164 Q452.714 146.058 454.705 147.756 Q456.725 149.425 458.95 149.425 Q461.351 149.425 463.342 147.639 Q465.362 145.823 465.977 141.929 Q466.65 138.094 466.621 129.516 Q466.621 121.171 466.035 117.834 Q465.245 113.94 463.137 112.388 Q461.058 110.807 458.95 110.807 Q458.16 110.807 457.311 111.041 Q456.491 111.275 455.29 111.949 Q454.09 112.622 453.153 114.291 Q452.245 115.96 451.806 118.478 Q451.338 121.728 451.338 129.516 Z" fill="#000000" fill-rule="evenodd" fill-opacity="1" /><path clip-path="url(#clip010)" d="M 0 0 M476.956 148.458 Q476.048 147.492 476.048 146.233 Q476.048 144.974 476.956 144.067 Q477.863 143.13 479.239 143.13 Q480.557 143.13 481.435 144.008 Q482.343 144.857 482.343 146.263 Q482.343 147.639 481.377 148.546 Q480.44 149.425 479.239 149.425 Q477.863 149.425 476.956 148.458 Z" fill="#000000" fill-rule="evenodd" fill-opacity="1" /><path clip-path="url(#clip010)" d="M 0 0 M492.544 130.247 Q492.544 121.435 494.77 116.633 Q497.873 109.489 505.192 109.489 Q506.744 109.489 508.355 109.929 Q509.994 110.338 512.044 111.949 Q514.122 113.559 515.381 116.194 Q517.782 121.288 517.782 130.247 Q517.782 139.002 515.557 143.774 Q512.307 150.742 505.134 150.742 Q502.44 150.742 499.688 149.366 Q496.965 147.99 495.238 144.682 Q492.544 139.734 492.544 130.247 M497.522 129.516 Q497.522 138.562 498.166 142.164 Q498.898 146.058 500.889 147.756 Q502.909 149.425 505.134 149.425 Q507.535 149.425 509.526 147.639 Q511.546 145.823 512.161 141.929 Q512.834 138.094 512.805 129.516 Q512.805 121.171 512.219 117.834 Q511.429 113.94 509.321 112.388 Q507.242 110.807 505.134 110.807 Q504.343 110.807 503.494 111.041 Q502.675 111.275 501.474 111.949 Q500.274 112.622 499.337 114.291 Q498.429 115.96 497.99 118.478 Q497.522 121.728 497.522 129.516 Z" fill="#000000" fill-rule="evenodd" fill-opacity="1" /><path clip-path="url(#clip010)" d="M 0 0 M522.232 130.247 Q522.232 121.435 524.457 116.633 Q527.56 109.489 534.88 109.489 Q536.432 109.489 538.042 109.929 Q539.682 110.338 541.731 111.949 Q543.81 113.559 545.069 116.194 Q547.47 121.288 547.47 130.247 Q547.47 139.002 545.244 143.774 Q541.995 150.742 534.821 150.742 Q532.128 150.742 529.376 149.366 Q526.653 147.99 524.925 144.682 Q522.232 139.734 522.232 130.247 M527.209 129.516 Q527.209 138.562 527.853 142.164 Q528.585 146.058 530.576 147.756 Q532.596 149.425 534.821 149.425 Q537.222 149.425 539.213 147.639 Q541.233 145.823 541.848 141.929 Q542.522 138.094 542.492 129.516 Q542.492 121.171 541.907 117.834 Q541.116 113.94 539.008 112.388 Q536.929 110.807 534.821 110.807 Q534.031 110.807 533.182 111.041 Q532.362 111.275 531.162 111.949 Q529.961 112.622 529.024 114.291 Q528.117 115.96 527.678 118.478 Q527.209 121.728 527.209 129.516 Z" fill="#000000" fill-rule="evenodd" fill-opacity="1" /><path clip-path="url(#clip010)" d="M 0 0 M554.582 104.714 Q553.619 104.714 553.619 104.202 Q553.619 103.689 554.623 103.689 Q554.746 103.689 554.951 103.71 Q555.176 103.73 555.217 103.73 L567.043 103.73 L567.043 91.8641 Q567.043 91.8231 567.022 91.6386 Q567.002 91.4337 567.002 91.3107 Q567.002 90.3065 567.494 90.3065 Q568.006 90.3065 568.006 91.3107 L568.006 103.73 L579.852 103.73 Q579.893 103.73 580.098 103.71 Q580.303 103.689 580.426 103.689 Q581.389 103.689 581.389 104.202 Q581.41 104.714 580.385 104.714 Q580.262 104.714 580.077 104.694 Q579.893 104.673 579.852 104.673 L568.006 104.673 L568.006 117.134 Q568.006 118.097 567.494 118.097 Q567.002 118.097 567.002 117.093 Q567.002 116.97 567.022 116.765 Q567.043 116.581 567.043 116.54 L567.043 104.673 L555.217 104.673 Q555.176 104.673 554.931 104.694 Q554.705 104.714 554.582 104.714 Z" fill="#000000" fill-rule="evenodd" fill-opacity="1" /><path clip-path="url(#clip010)" d="M 0 0 M585.947 90.7369 L585.947 89.4252 Q590.989 89.4252 593.592 86.7404 Q594.309 86.7404 594.432 86.9044 Q594.555 87.0683 594.555 87.8266 L594.555 111.375 Q594.555 112.625 595.17 113.015 Q595.785 113.404 598.47 113.404 L599.802 113.404 L599.802 114.695 Q598.326 114.572 592.998 114.572 Q587.669 114.572 586.214 114.695 L586.214 113.404 L587.546 113.404 Q590.19 113.404 590.825 113.035 Q591.461 112.646 591.461 111.375 L591.461 89.6302 Q589.268 90.7369 585.947 90.7369 Z" fill="#000000" fill-rule="evenodd" fill-opacity="1" /><path clip-path="url(#clip010)" d="M 0 0 M603.098 114.019 Q602.463 113.342 602.463 112.461 Q602.463 111.58 603.098 110.945 Q603.734 110.289 604.697 110.289 Q605.619 110.289 606.234 110.904 Q606.869 111.498 606.869 112.482 Q606.869 113.445 606.193 114.08 Q605.537 114.695 604.697 114.695 Q603.734 114.695 603.098 114.019 Z" fill="#000000" fill-rule="evenodd" fill-opacity="1" /><path clip-path="url(#clip010)" d="M 0 0 M614.011 109.039 Q614.011 107.788 614.728 107.194 Q615.445 106.6 616.367 106.6 Q617.331 106.6 618.007 107.235 Q618.704 107.85 618.704 108.936 Q618.704 110.104 617.884 110.76 Q617.085 111.416 615.937 111.252 Q616.941 112.933 618.786 113.691 Q620.651 114.449 622.372 114.449 Q624.176 114.449 625.631 112.892 Q627.107 111.334 627.107 107.522 Q627.107 104.284 625.836 102.419 Q624.586 100.554 622.106 100.554 L620.261 100.554 Q619.626 100.554 619.442 100.492 Q619.257 100.431 619.257 100.082 Q619.257 99.6725 619.892 99.5906 Q620.528 99.5906 621.532 99.4676 Q623.971 99.3856 625.262 97.2747 Q626.43 95.3072 626.43 92.4994 Q626.43 89.9376 625.201 88.8719 Q623.991 87.7856 622.413 87.7856 Q620.938 87.7856 619.319 88.4005 Q617.7 89.0153 616.818 90.3885 Q619.421 90.3885 619.421 92.4994 Q619.421 93.4217 618.827 94.0365 Q618.253 94.6309 617.29 94.6309 Q616.367 94.6309 615.753 94.057 Q615.138 93.4627 615.138 92.4584 Q615.138 90.0606 617.269 88.4005 Q619.421 86.7404 622.577 86.7404 Q625.692 86.7404 627.988 88.38 Q630.304 90.0196 630.304 92.5404 Q630.304 95.0203 628.664 97.0492 Q627.025 99.0782 624.422 99.9185 Q627.619 100.554 629.525 102.726 Q631.431 104.878 631.431 107.522 Q631.431 110.801 628.849 113.219 Q626.266 115.617 622.495 115.617 Q619.011 115.617 616.511 113.732 Q614.011 111.846 614.011 109.039 Z" fill="#000000" fill-rule="evenodd" fill-opacity="1" /><path clip-path="url(#clip010)" d="M 0 0 M634.792 96.1885 Q634.792 93.9545 635.448 92.4379 Q636.103 90.9008 637.477 89.3842 Q639.997 86.7404 643.645 86.7404 Q645.203 86.7404 646.576 87.3963 Q647.97 88.0521 649.281 89.5482 Q650.614 91.0238 651.413 93.9545 Q652.212 96.8648 652.212 100.882 Q652.212 107.379 649.056 111.498 Q645.92 115.617 641.678 115.617 Q638.993 115.617 637.415 114.408 Q635.837 113.179 635.837 111.088 Q635.837 110.002 636.452 109.551 Q637.067 109.08 637.763 109.08 Q638.522 109.08 639.116 109.592 Q639.71 110.084 639.71 111.006 Q639.71 111.764 639.219 112.359 Q638.747 112.933 637.518 112.933 Q638.727 114.449 641.637 114.449 Q642.682 114.449 643.727 113.978 Q644.773 113.486 645.9 112.318 Q647.048 111.129 647.744 108.649 Q648.441 106.169 648.441 102.685 L648.441 101.353 Q646.761 105.555 643.195 105.555 Q639.669 105.555 637.231 102.849 Q634.792 100.144 634.792 96.1885 M638.563 96.2294 Q638.563 100.39 639.321 101.927 Q640.612 104.571 643.236 104.571 Q645.797 104.571 647.068 102.296 Q648.359 100 648.359 97.0287 Q648.359 92.9093 647.683 91.1058 Q646.433 87.7856 643.645 87.7856 Q640.879 87.7856 639.444 90.4295 Q638.563 91.9871 638.563 96.2294 Z" fill="#000000" fill-rule="evenodd" fill-opacity="1" /><path clip-path="url(#clip010)" d="M 0 0 M581.328 156.312 Q581.574 156.558 581.574 156.906 Q581.574 157.254 581.328 157.5 Q581.082 157.746 580.733 157.746 L554.459 157.746 Q554.111 157.746 553.865 157.5 Q553.619 157.254 553.619 156.906 Q553.619 156.558 553.865 156.312 Q554.111 156.066 554.459 156.066 L580.733 156.066 Q581.082 156.066 581.328 156.312 Z" fill="#000000" fill-rule="evenodd" fill-opacity="1" /><path clip-path="url(#clip010)" d="M 0 0 M585.947 143.441 L585.947 142.129 Q590.989 142.129 593.592 139.445 Q594.309 139.445 594.432 139.608 Q594.555 139.772 594.555 140.531 L594.555 164.079 Q594.555 165.329 595.17 165.719 Q595.785 166.108 598.47 166.108 L599.802 166.108 L599.802 167.399 Q598.326 167.276 592.998 167.276 Q587.669 167.276 586.214 167.399 L586.214 166.108 L587.546 166.108 Q590.19 166.108 590.825 165.739 Q591.461 165.35 591.461 164.079 L591.461 142.334 Q589.268 143.441 585.947 143.441 Z" fill="#000000" fill-rule="evenodd" fill-opacity="1" /><path clip-path="url(#clip010)" d="M 0 0 M603.098 166.723 Q602.463 166.047 602.463 165.165 Q602.463 164.284 603.098 163.649 Q603.734 162.993 604.697 162.993 Q605.619 162.993 606.234 163.608 Q606.869 164.202 606.869 165.186 Q606.869 166.149 606.193 166.784 Q605.537 167.399 604.697 167.399 Q603.734 167.399 603.098 166.723 Z" fill="#000000" fill-rule="evenodd" fill-opacity="1" /><path clip-path="url(#clip010)" d="M 0 0 M614.011 161.743 Q614.011 160.493 614.728 159.898 Q615.445 159.304 616.367 159.304 Q617.331 159.304 618.007 159.939 Q618.704 160.554 618.704 161.64 Q618.704 162.808 617.884 163.464 Q617.085 164.12 615.937 163.956 Q616.941 165.637 618.786 166.395 Q620.651 167.153 622.372 167.153 Q624.176 167.153 625.631 165.596 Q627.107 164.038 627.107 160.226 Q627.107 156.988 625.836 155.123 Q624.586 153.258 622.106 153.258 L620.261 153.258 Q619.626 153.258 619.442 153.196 Q619.257 153.135 619.257 152.787 Q619.257 152.377 619.892 152.295 Q620.528 152.295 621.532 152.172 Q623.971 152.09 625.262 149.979 Q626.43 148.011 626.43 145.204 Q626.43 142.642 625.201 141.576 Q623.991 140.49 622.413 140.49 Q620.938 140.49 619.319 141.105 Q617.7 141.719 616.818 143.093 Q619.421 143.093 619.421 145.204 Q619.421 146.126 618.827 146.741 Q618.253 147.335 617.29 147.335 Q616.367 147.335 615.753 146.761 Q615.138 146.167 615.138 145.163 Q615.138 142.765 617.269 141.105 Q619.421 139.445 622.577 139.445 Q625.692 139.445 627.988 141.084 Q630.304 142.724 630.304 145.245 Q630.304 147.724 628.664 149.753 Q627.025 151.782 624.422 152.623 Q627.619 153.258 629.525 155.43 Q631.431 157.582 631.431 160.226 Q631.431 163.505 628.849 165.924 Q626.266 168.321 622.495 168.321 Q619.011 168.321 616.511 166.436 Q614.011 164.55 614.011 161.743 Z" fill="#000000" fill-rule="evenodd" fill-opacity="1" /><path clip-path="url(#clip010)" d="M 0 0 M634.792 160.636 Q634.792 159.386 635.468 158.914 Q636.144 158.423 636.862 158.423 Q637.825 158.423 638.378 159.037 Q638.952 159.632 638.952 160.472 Q638.952 161.312 638.378 161.927 Q637.825 162.521 636.862 162.521 Q636.39 162.521 636.144 162.44 Q636.698 164.366 638.378 165.76 Q640.079 167.153 642.313 167.153 Q645.121 167.153 646.802 164.427 Q647.806 162.665 647.806 158.668 Q647.806 155.143 647.048 153.381 Q645.879 150.696 643.481 150.696 Q640.079 150.696 638.071 153.627 Q637.825 153.996 637.538 154.016 Q637.128 154.016 637.026 153.791 Q636.944 153.545 636.944 152.91 L636.944 140.49 Q636.944 139.486 637.354 139.486 Q637.518 139.486 637.866 139.608 Q640.51 140.777 643.441 140.797 Q646.453 140.797 649.159 139.567 Q649.363 139.445 649.486 139.445 Q649.896 139.445 649.917 139.916 Q649.917 140.08 649.568 140.572 Q649.24 141.043 648.523 141.678 Q647.806 142.293 646.884 142.888 Q645.961 143.482 644.609 143.892 Q643.277 144.281 641.801 144.281 Q640.038 144.281 638.235 143.728 L638.235 151.905 Q640.407 149.774 643.563 149.774 Q646.925 149.774 649.24 152.479 Q651.556 155.184 651.556 158.955 Q651.556 162.911 648.81 165.616 Q646.084 168.321 642.395 168.321 Q639.034 168.321 636.903 165.924 Q634.792 163.526 634.792 160.636 Z" fill="#000000" fill-rule="evenodd" fill-opacity="1" /></svg>
